<svg width="1280" height="720" fill="none" xmlns="http://www.w3.org/2000/svg"><g clip-path="url(#a)"><path fill="#1C233A" d="M0 0h1280v720H0z"/><path d="M177.821 17.783 160.039 0l-17.782 17.783 17.782 17.783-17.782 17.783 17.782 17.783 17.782-17.783 17.782 17.783 17.783-17.783-17.783-17.783 17.783-17.783L195.603 0l-17.782 17.783Z" fill="#A656FD"/><path d="M248.889 17.783 231.106 0l-17.782 17.783 17.782 17.783-17.782 17.783 17.782 17.783 17.783-17.783 17.782 17.783 17.782-17.783-17.782-17.783 17.782-17.783L266.671 0l-17.782 17.783Z" fill="#56CFEF"/><path d="m248.889 88.915-17.783-17.783-17.782 17.783 17.782 17.783-17.782 17.783 17.782 17.783 17.783-17.783 17.782 17.783 17.782-17.783-17.782-17.783 17.782-17.783-17.782-17.783-17.782 17.783Z" fill="#F94E4E"/><path d="M391.146 17.783 373.364 0l-17.783 17.783 17.783 17.783-17.783 17.783 17.783 17.783 17.782-17.783 17.782 17.783L426.71 53.35l-17.782-17.783 17.782-17.783L408.928 0l-17.782 17.783Z" fill="#3CE956"/><path d="m391.146 88.915-17.782-17.783-17.783 17.783 17.783 17.783-17.783 17.783 17.783 17.783 17.782-17.783 17.782 17.783 17.782-17.783-17.782-17.783 17.782-17.783-17.782-17.783-17.782 17.783Zm248.888-53.349L604.47 0l-35.564 35.566 35.564 35.566-35.564 35.566 35.564 35.566 35.564-35.566 35.565 35.566 35.564-35.566-35.564-35.566 35.564-35.566L675.599 0l-35.565 35.566Z" fill="#F94E4E"/><path d="M1244.5 17.783 1226.72 0l-17.78 17.783 17.78 17.783-17.78 17.783 17.78 17.783 17.78-17.783 17.79 17.783 17.78-17.783-17.78-17.783 17.78-17.783L1262.29 0l-17.79 17.783Z" fill="#3CE956"/><path d="m71.129 177.83-35.565-35.566L0 177.83l35.564 35.566L0 248.962l35.564 35.566 35.565-35.566 35.564 35.566 35.564-35.566-35.564-35.566 35.564-35.566-35.564-35.566-35.564 35.566Z" fill="#A656FD"/><path d="m462.274 160.047-17.782-17.783-17.782 17.783 17.782 17.783-17.782 17.783 17.782 17.783 17.782-17.783 17.782 17.783 17.783-17.783-17.783-17.783 17.783-17.783-17.783-17.783-17.782 17.783Z" fill="#E6C642"/><path d="m533.341 160.047-17.782-17.783-17.782 17.783 17.782 17.783-17.782 17.783 17.782 17.783 17.782-17.783 17.783 17.783 17.782-17.783-17.782-17.783 17.782-17.783-17.782-17.783-17.783 17.783Z" fill="#E857ED"/><path d="m903.185 195.613-17.776-17.783-17.782 17.783 17.782 17.783-17.782 17.783 17.782 17.783 17.782-17.783 17.783 17.783 17.782-17.783-17.782-17.783 17.782-17.783-17.782-17.783-17.789 17.783Z" fill="#F94E4E"/><path d="m1031.18 160.047-17.78-17.783-17.784 17.783 17.784 17.783-17.784 17.783 17.784 17.783 17.78-17.783 17.78 17.783 17.78-17.783-17.78-17.783 17.78-17.783-17.78-17.783-17.78 17.783Z" fill="#E6C642"/><path d="m1031.18 231.118-17.78-17.783-17.784 17.783 17.784 17.783-17.784 17.783 17.784 17.783 17.78-17.783 17.78 17.783 17.78-17.783-17.78-17.783 17.78-17.783-17.78-17.783-17.78 17.783Z" fill="#A656FD"/><path d="m782.255 266.684-17.782-17.783-17.783 17.783 17.783 17.783-17.783 17.783 17.783 17.783 17.782-17.783 17.782 17.783 17.782-17.783-17.782-17.783 17.782-17.783-17.782-17.783-17.782 17.783ZM1244.5 160.047l-17.78-17.783-17.78 17.783 17.78 17.783-17.78 17.783 17.78 17.783 17.78-17.783 17.79 17.783 17.78-17.783-17.78-17.783 17.78-17.783-17.78-17.783-17.79 17.783Z" fill="#3CE956"/><path d="m213.386 320.033-35.565-35.566-35.564 35.566 35.564 35.566-35.564 35.566 35.564 35.567 35.565-35.567 35.564 35.567 35.564-35.567-35.564-35.566 35.564-35.566-35.564-35.566-35.564 35.566Zm177.76-17.783-17.782-17.783-17.783 17.783 17.783 17.783-17.783 17.783 17.783 17.783 17.782-17.783 17.782 17.783 17.782-17.783-17.782-17.783 17.782-17.783-17.782-17.783-17.782 17.783Z" fill="#F94E4E"/><path d="m391.146 373.382-17.782-17.783-17.783 17.783 17.783 17.783-17.783 17.783 17.783 17.784 17.782-17.784 17.782 17.784 17.782-17.784-17.782-17.783 17.782-17.783-17.782-17.783-17.782 17.783Zm106.692-53.349-35.564-35.566-35.564 35.566 35.564 35.566-35.564 35.566 35.564 35.567 35.564-35.567 35.565 35.567 35.564-35.567-35.564-35.566 35.564-35.566-35.564-35.566-35.565 35.566Z" fill="#56CFEF"/><path d="m1173.38 302.25-17.79-17.783-17.78 17.783 17.78 17.783-17.78 17.783 17.78 17.783 17.79-17.783 17.78 17.783 17.78-17.783-17.78-17.783 17.78-17.783-17.78-17.783-17.78 17.783Z" fill="#E6C642"/><path d="m1244.5 302.25-17.78-17.783-17.78 17.783 17.78 17.783-17.78 17.783 17.78 17.783 17.78-17.783 17.79 17.783 17.78-17.783-17.78-17.783 17.78-17.783-17.78-17.783-17.79 17.783Z" fill="#56CFEF"/><path d="m1173.38 373.383-17.79-17.783-17.78 17.783 17.78 17.783-17.78 17.783 17.78 17.783 17.79-17.783 17.78 17.783 17.78-17.783-17.78-17.783 17.78-17.783-17.78-17.783-17.78 17.783Z" fill="#3CE956"/><path d="m248.889 444.514-17.783-17.783-17.782 17.783 17.782 17.783-17.782 17.784 17.782 17.783 17.783-17.783 17.782 17.783 17.782-17.783-17.782-17.784 17.782-17.783-17.782-17.783-17.782 17.783Z" fill="#F94E4E"/><path d="m248.889 515.585-17.783-17.783-17.782 17.783 17.782 17.783-17.782 17.783 17.782 17.783 17.783-17.783 17.782 17.783 17.782-17.783-17.782-17.783 17.782-17.783-17.782-17.783-17.782 17.783Zm71.128 0-17.782-17.783-17.782 17.783 17.782 17.783-17.782 17.783 17.782 17.783 17.782-17.783 17.782 17.783 17.782-17.783-17.782-17.783 17.782-17.783-17.782-17.783-17.782 17.783Z" fill="#307DE7"/><path d="m924.487 462.297-35.564-35.566-35.564 35.566 35.564 35.567-35.564 35.566 35.564 35.566 35.564-35.566 35.565 35.566 35.564-35.566-35.564-35.566 35.564-35.567-35.564-35.566-35.565 35.566Z" fill="#A656FD"/><path d="m1066.74 462.297-35.56-35.566-35.564 35.566 35.564 35.567-35.564 35.566 35.564 35.566 35.56-35.566 35.57 35.566 35.56-35.566-35.56-35.566 35.56-35.567-35.56-35.566-35.57 35.566Z" fill="#307DE7"/><path d="m106.693 657.849-17.782-17.783-17.782 17.783 17.782 17.783-17.782 17.784 17.782 17.783 17.782-17.783 17.782 17.783 17.782-17.783-17.782-17.784 17.782-17.783-17.782-17.783-17.782 17.783Z" fill="#A656FD"/><path d="m320.017 657.849-17.782-17.783-17.782 17.783 17.782 17.783-17.782 17.784 17.782 17.783 17.782-17.783 17.782 17.783 17.782-17.783-17.782-17.784 17.782-17.783-17.782-17.783-17.782 17.783Z" fill="#F94E4E"/><path d="m391.146 657.849-17.782-17.783-17.783 17.783 17.783 17.783-17.783 17.784 17.783 17.783 17.782-17.783 17.782 17.783 17.782-17.783-17.782-17.784 17.782-17.783-17.782-17.783-17.782 17.783Z" fill="#3CE956"/><path d="m960.052 657.849-17.783-17.783-17.782 17.783 17.782 17.783-17.782 17.784 17.782 17.783 17.783-17.783 17.782 17.783 17.782-17.783-17.782-17.784 17.782-17.783-17.782-17.783-17.782 17.783Z" fill="#F94E4E"/><path d="m888.923 284.467-35.564-35.566-35.564 35.566 35.564 35.566-35.564 35.567 35.564 35.566 35.564-35.566 35.564 35.566 35.565-35.566-35.565-35.567 35.565-35.566-35.565-35.566-35.564 35.566Z" fill="#E6C642"/><path d="M323.58 640.005c19.614 0 35.515-15.896 35.515-35.505 0-19.608-15.901-35.504-35.515-35.504-19.615 0-35.516 15.896-35.516 35.504 0 19.609 15.901 35.505 35.516 35.505ZM462.164 284.406c19.615 0 35.515-15.896 35.515-35.505 0-19.608-15.9-35.505-35.515-35.505-19.615 0-35.515 15.897-35.515 35.505 0 19.609 15.9 35.505 35.515 35.505Z" fill="#307DE7"/><path d="M213.392 284.474c39.28 0 71.122-31.834 71.122-71.102s-31.842-71.101-71.122-71.101-71.123 31.833-71.123 71.101 31.843 71.102 71.123 71.102Z" fill="#F94E4E"/><path d="M1173.39 711.138c19.61 0 35.51-15.896 35.51-35.505s-15.9-35.505-35.51-35.505c-19.62 0-35.52 15.896-35.52 35.505s15.9 35.505 35.52 35.505ZM888.972 640.005c19.615 0 35.515-15.896 35.515-35.505 0-19.608-15.9-35.504-35.515-35.504-19.615 0-35.515 15.896-35.515 35.504 0 19.609 15.9 35.505 35.515 35.505Z" fill="#A656FD"/><path d="M782.463 711.168c39.28 0 71.122-31.833 71.122-71.101s-31.842-71.102-71.122-71.102-71.123 31.834-71.123 71.102 31.843 71.101 71.123 71.101Z" fill="#3CE956"/><path d="M35.613 711.015c19.615 0 35.516-15.896 35.516-35.505s-15.901-35.505-35.516-35.505C16 640.005.098 655.901.098 675.51s15.9 35.505 35.515 35.505ZM782.255 142.234c39.28 0 71.122-31.834 71.122-71.102S821.535.031 782.255.031s-71.123 31.833-71.123 71.101 31.843 71.102 71.123 71.102Z" fill="#307DE7"/><path d="M1066.74 711.199c39.28 0 71.12-31.834 71.12-71.102s-31.84-71.101-71.12-71.101-71.124 31.833-71.124 71.101 31.844 71.102 71.124 71.102Z" fill="#E6C642"/><path d="M71.196 568.996c39.28 0 71.122-31.833 71.122-71.102 0-39.268-31.842-71.101-71.122-71.101S.073 458.626.073 497.894c0 39.269 31.843 71.102 71.123 71.102Z" fill="#307DE7"/><path d="M1102.3 284.529c19.61 0 35.51-15.896 35.51-35.505s-15.9-35.505-35.51-35.505c-19.62 0-35.52 15.896-35.52 35.505s15.9 35.505 35.52 35.505ZM1244.41 284.529c19.62 0 35.52-15.896 35.52-35.505s-15.9-35.505-35.52-35.505c-19.61 0-35.51 15.896-35.51 35.505s15.9 35.505 35.51 35.505Z" fill="#A656FD"/><path d="M1173.31 71.316c19.61 0 35.51-15.896 35.51-35.505S1192.92.306 1173.31.306c-19.62 0-35.52 15.896-35.52 35.505s15.9 35.505 35.52 35.505Z" fill="#56CFEF"/><path d="M782.255 391.104c19.614 0 35.515-15.896 35.515-35.504 0-19.609-15.901-35.505-35.515-35.505-19.615 0-35.516 15.896-35.516 35.505 0 19.608 15.901 35.504 35.516 35.504Z" fill="#307DE7"/><path fill="#1C233A" d="M0 237h1280v246H0z"/><path d="M463.431 446c-2 0-3.6-.6-4.8-1.8-1.066-1.067-1.933-2-2.6-2.8l-7.2-9.6c-5.733 2.133-12.266 3.2-19.6 3.2-12.133 0-22.6-2-31.4-6-8.8-4-15.666-10-20.6-18-4.8-8.133-7.466-18.333-8-30.6-.133-5.733-.2-11.4-.2-17 0-5.733.067-11.533.2-17.4.534-12 3.267-22.067 8.2-30.2 5.067-8.267 12-14.467 20.8-18.6 8.934-4.133 19.267-6.2 31-6.2 11.734 0 22 2.067 30.8 6.2 8.934 4.133 15.934 10.333 21 18.6 5.067 8.133 7.8 18.2 8.2 30.2.267 5.867.4 11.667.4 17.4 0 5.6-.133 11.267-.4 17-.8 17.067-5.666 30.067-14.6 39l14.4 20.4c.134.133.267.4.4.8.134.4.2.8.2 1.2.134 1.067-.2 2-1 2.8-.8.933-1.8 1.4-3 1.4h-22.2Zm-34.2-36.8c7.867 0 14.267-2.333 19.2-7 4.934-4.8 7.6-12.4 8-22.8.267-5.867.4-11.333.4-16.4 0-5.2-.133-10.667-.4-16.4-.266-6.933-1.6-12.6-4-17-2.266-4.4-5.4-7.6-9.4-9.6-4-2.133-8.6-3.2-13.8-3.2-5.066 0-9.6 1.067-13.6 3.2-4 2-7.2 5.2-9.6 9.6-2.4 4.4-3.733 10.067-4 17-.133 5.733-.2 11.2-.2 16.4 0 5.067.067 10.533.2 16.4.4 10.4 3.067 18 8 22.8 5.067 4.667 11.467 7 19.2 7ZM571.656 435c-11.733 0-22-1.933-30.8-5.8-8.8-4-15.6-10.067-20.4-18.2-4.8-8.267-7.2-18.733-7.2-31.4V298c0-1.467.467-2.667 1.4-3.6.934-.933 2.134-1.4 3.6-1.4h21.8c1.467 0 2.667.467 3.6 1.4.934.933 1.4 2.133 1.4 3.6v81.4c0 9.867 2.334 17.2 7 22 4.667 4.8 11.2 7.2 19.6 7.2 8.267 0 14.734-2.4 19.4-7.2 4.667-4.8 7-12.133 7-22V298c0-1.467.467-2.667 1.4-3.6 1.067-.933 2.267-1.4 3.6-1.4h22c1.334 0 2.467.467 3.4 1.4.934.933 1.4 2.133 1.4 3.6v81.6c0 12.667-2.4 23.133-7.2 31.4-4.8 8.133-11.533 14.2-20.2 18.2-8.666 3.867-18.933 5.8-30.8 5.8Zm91.55-2c-1.466 0-2.666-.467-3.6-1.4-.933-.933-1.4-2.133-1.4-3.6V298c0-1.467.467-2.667 1.4-3.6.934-.933 2.134-1.4 3.6-1.4h22.6c1.467 0 2.667.467 3.6 1.4.934.933 1.4 2.133 1.4 3.6v130c0 1.467-.466 2.667-1.4 3.6-.933.933-2.133 1.4-3.6 1.4h-22.6Zm54.91 0c-1.467 0-2.667-.467-3.6-1.4-.934-1.067-1.4-2.267-1.4-3.6v-16.8c0-1.867.4-3.4 1.2-4.6.8-1.2 1.4-2.067 1.8-2.6l67.2-84.4h-63.4c-1.334 0-2.467-.467-3.4-1.4-.934-.933-1.4-2.067-1.4-3.4V298c0-1.467.466-2.667 1.4-3.6.933-.933 2.066-1.4 3.4-1.4h98.2c1.466 0 2.666.467 3.6 1.4 1.066.933 1.6 2.133 1.6 3.6v16.6c0 1.467-.267 2.8-.8 4-.534 1.067-1.134 2-1.8 2.8l-65.4 84.8h65.2c1.466 0 2.666.467 3.6 1.4.933.933 1.4 2.133 1.4 3.6V428c0 1.467-.467 2.667-1.4 3.6-.934.933-2.134 1.4-3.6 1.4h-102.4Zm134.543 0c-1.466 0-2.666-.467-3.6-1.4-.933-.933-1.4-2.133-1.4-3.6V298c0-1.467.467-2.667 1.4-3.6.934-.933 2.134-1.4 3.6-1.4h22.6c1.467 0 2.667.467 3.6 1.4.934.933 1.4 2.133 1.4 3.6v130c0 1.467-.466 2.667-1.4 3.6-.933.933-2.133 1.4-3.6 1.4h-22.6Z" fill="#fff"/></g><defs><clipPath id="a"><path fill="#fff" d="M0 0h1280v720H0z"/></clipPath></defs></svg>