<svg width="1280" height="720" viewBox="0 0 1280 720" fill="none" xmlns="http://www.w3.org/2000/svg">
<g clip-path="url(#clip0_415_66)">
<rect width="1280" height="720" fill="#1C233A"/>
<path d="M177.821 17.783L160.039 0L142.257 17.783L160.039 35.5661L142.257 53.3491L160.039 71.1321L177.821 53.3491L195.603 71.1321L213.386 53.3491L195.603 35.5661L213.386 17.783L195.603 0L177.821 17.783Z" fill="#A656FD"/>
<path d="M248.889 17.783L231.106 0L213.324 17.783L231.106 35.5661L213.324 53.3491L231.106 71.1321L248.889 53.3491L266.671 71.1321L284.453 53.3491L266.671 35.5661L284.453 17.783L266.671 0L248.889 17.783Z" fill="#56CFEF"/>
<path d="M248.889 88.9151L231.106 71.1321L213.324 88.9151L231.106 106.698L213.324 124.481L231.106 142.264L248.889 124.481L266.671 142.264L284.453 124.481L266.671 106.698L284.453 88.9151L266.671 71.1321L248.889 88.9151Z" fill="#F94E4E"/>
<path d="M391.146 17.783L373.364 0L355.581 17.783L373.364 35.5661L355.581 53.3491L373.364 71.1321L391.146 53.3491L408.928 71.1321L426.71 53.3491L408.928 35.5661L426.71 17.783L408.928 0L391.146 17.783Z" fill="#3CE956"/>
<path d="M391.146 88.9152L373.364 71.1321L355.581 88.9152L373.364 106.698L355.581 124.481L373.364 142.264L391.146 124.481L408.928 142.264L426.71 124.481L408.928 106.698L426.71 88.9152L408.928 71.1321L391.146 88.9152ZM640.034 35.5661L604.47 0L568.906 35.5661L604.47 71.1321L568.906 106.698L604.47 142.264L640.034 106.698L675.599 142.264L711.163 106.698L675.599 71.1321L711.163 35.5661L675.599 0L640.034 35.5661Z" fill="#F94E4E"/>
<path d="M1244.5 17.783L1226.72 0L1208.94 17.783L1226.72 35.5661L1208.94 53.3491L1226.72 71.1321L1244.5 53.3491L1262.29 71.1321L1280.07 53.3491L1262.29 35.5661L1280.07 17.783L1262.29 0L1244.5 17.783Z" fill="#3CE956"/>
<path d="M71.1285 177.83L35.5643 142.264L0 177.83L35.5643 213.396L0 248.962L35.5643 284.528L71.1285 248.962L106.693 284.528L142.257 248.962L106.693 213.396L142.257 177.83L106.693 142.264L71.1285 177.83Z" fill="#A656FD"/>
<path d="M462.274 160.047L444.492 142.264L426.71 160.047L444.492 177.83L426.71 195.613L444.492 213.396L462.274 195.613L480.056 213.396L497.839 195.613L480.056 177.83L497.839 160.047L480.056 142.264L462.274 160.047Z" fill="#E6C642"/>
<path d="M533.341 160.047L515.559 142.264L497.777 160.047L515.559 177.83L497.777 195.613L515.559 213.396L533.341 195.613L551.124 213.396L568.906 195.613L551.124 177.83L568.906 160.047L551.124 142.264L533.341 160.047Z" fill="#E857ED"/>
<path d="M903.185 195.613L885.409 177.83L867.627 195.613L885.409 213.396L867.627 231.179L885.409 248.962L903.191 231.179L920.974 248.962L938.756 231.179L920.974 213.396L938.756 195.613L920.974 177.83L903.185 195.613Z" fill="#F94E4E"/>
<path d="M1031.18 160.047L1013.4 142.264L995.616 160.047L1013.4 177.83L995.616 195.613L1013.4 213.396L1031.18 195.613L1048.96 213.396L1066.74 195.613L1048.96 177.83L1066.74 160.047L1048.96 142.264L1031.18 160.047Z" fill="#E6C642"/>
<path d="M1031.18 231.118L1013.4 213.335L995.616 231.118L1013.4 248.901L995.616 266.684L1013.4 284.467L1031.18 266.684L1048.96 284.467L1066.74 266.684L1048.96 248.901L1066.74 231.118L1048.96 213.335L1031.18 231.118Z" fill="#A656FD"/>
<path d="M782.255 266.684L764.473 248.901L746.69 266.684L764.473 284.467L746.69 302.25L764.473 320.033L782.255 302.25L800.037 320.033L817.819 302.25L800.037 284.467L817.819 266.684L800.037 248.901L782.255 266.684ZM1244.5 160.047L1226.72 142.264L1208.94 160.047L1226.72 177.83L1208.94 195.613L1226.72 213.396L1244.5 195.613L1262.29 213.396L1280.07 195.613L1262.29 177.83L1280.07 160.047L1262.29 142.264L1244.5 160.047Z" fill="#3CE956"/>
<path d="M213.386 320.033L177.821 284.467L142.257 320.033L177.821 355.599L142.257 391.165L177.821 426.732L213.386 391.165L248.95 426.732L284.514 391.165L248.95 355.599L284.514 320.033L248.95 284.467L213.386 320.033ZM391.146 302.25L373.364 284.467L355.581 302.25L373.364 320.033L355.581 337.816L373.364 355.599L391.146 337.816L408.928 355.599L426.71 337.816L408.928 320.033L426.71 302.25L408.928 284.467L391.146 302.25Z" fill="#F94E4E"/>
<path d="M391.146 373.382L373.364 355.599L355.581 373.382L373.364 391.165L355.581 408.948L373.364 426.732L391.146 408.948L408.928 426.732L426.71 408.948L408.928 391.165L426.71 373.382L408.928 355.599L391.146 373.382ZM497.838 320.033L462.274 284.467L426.71 320.033L462.274 355.599L426.71 391.165L462.274 426.732L497.838 391.165L533.403 426.732L568.967 391.165L533.403 355.599L568.967 320.033L533.403 284.467L497.838 320.033Z" fill="#56CFEF"/>
<path d="M1173.38 302.25L1155.59 284.467L1137.81 302.25L1155.59 320.033L1137.81 337.816L1155.59 355.599L1173.38 337.816L1191.16 355.599L1208.94 337.816L1191.16 320.033L1208.94 302.25L1191.16 284.467L1173.38 302.25Z" fill="#E6C642"/>
<path d="M1244.5 302.25L1226.72 284.467L1208.94 302.25L1226.72 320.033L1208.94 337.816L1226.72 355.599L1244.5 337.816L1262.29 355.599L1280.07 337.816L1262.29 320.033L1280.07 302.25L1262.29 284.467L1244.5 302.25Z" fill="#56CFEF"/>
<path d="M1173.38 373.383L1155.59 355.6L1137.81 373.383L1155.59 391.166L1137.81 408.949L1155.59 426.732L1173.38 408.949L1191.16 426.732L1208.94 408.949L1191.16 391.166L1208.94 373.383L1191.16 355.6L1173.38 373.383Z" fill="#3CE956"/>
<path d="M248.889 444.514L231.106 426.731L213.324 444.514L231.106 462.297L213.324 480.081L231.106 497.864L248.889 480.081L266.671 497.864L284.453 480.081L266.671 462.297L284.453 444.514L266.671 426.731L248.889 444.514Z" fill="#F94E4E"/>
<path d="M248.889 515.585L231.106 497.802L213.324 515.585L231.106 533.368L213.324 551.151L231.106 568.934L248.889 551.151L266.671 568.934L284.453 551.151L266.671 533.368L284.453 515.585L266.671 497.802L248.889 515.585ZM320.017 515.585L302.235 497.802L284.453 515.585L302.235 533.368L284.453 551.151L302.235 568.934L320.017 551.151L337.799 568.934L355.581 551.151L337.799 533.368L355.581 515.585L337.799 497.802L320.017 515.585Z" fill="#307DE7"/>
<path d="M924.487 462.297L888.923 426.731L853.359 462.297L888.923 497.864L853.359 533.43L888.923 568.996L924.487 533.43L960.052 568.996L995.616 533.43L960.052 497.864L995.616 462.297L960.052 426.731L924.487 462.297Z" fill="#A656FD"/>
<path d="M1066.74 462.297L1031.18 426.731L995.616 462.297L1031.18 497.864L995.616 533.43L1031.18 568.996L1066.74 533.43L1102.31 568.996L1137.87 533.43L1102.31 497.864L1137.87 462.297L1102.31 426.731L1066.74 462.297Z" fill="#307DE7"/>
<path d="M106.693 657.849L88.9107 640.066L71.1285 657.849L88.9107 675.632L71.1285 693.416L88.9107 711.199L106.693 693.416L124.475 711.199L142.257 693.416L124.475 675.632L142.257 657.849L124.475 640.066L106.693 657.849Z" fill="#A656FD"/>
<path d="M320.017 657.849L302.235 640.066L284.453 657.849L302.235 675.632L284.453 693.416L302.235 711.199L320.017 693.416L337.799 711.199L355.581 693.416L337.799 675.632L355.581 657.849L337.799 640.066L320.017 657.849Z" fill="#F94E4E"/>
<path d="M391.146 657.849L373.364 640.066L355.581 657.849L373.364 675.632L355.581 693.416L373.364 711.199L391.146 693.416L408.928 711.199L426.71 693.416L408.928 675.632L426.71 657.849L408.928 640.066L391.146 657.849Z" fill="#3CE956"/>
<path d="M960.052 657.849L942.269 640.066L924.487 657.849L942.269 675.632L924.487 693.416L942.269 711.199L960.052 693.416L977.834 711.199L995.616 693.416L977.834 675.632L995.616 657.849L977.834 640.066L960.052 657.849Z" fill="#F94E4E"/>
<path d="M888.923 284.467L853.359 248.901L817.795 284.467L853.359 320.033L817.795 355.6L853.359 391.166L888.923 355.6L924.487 391.166L960.052 355.6L924.487 320.033L960.052 284.467L924.487 248.901L888.923 284.467Z" fill="#E6C642"/>
<path d="M323.58 640.005C343.194 640.005 359.095 624.109 359.095 604.5C359.095 584.892 343.194 568.996 323.58 568.996C303.965 568.996 288.064 584.892 288.064 604.5C288.064 624.109 303.965 640.005 323.58 640.005Z" fill="#307DE7"/>
<path d="M462.164 284.406C481.779 284.406 497.679 268.51 497.679 248.901C497.679 229.293 481.779 213.396 462.164 213.396C442.549 213.396 426.649 229.293 426.649 248.901C426.649 268.51 442.549 284.406 462.164 284.406Z" fill="#307DE7"/>
<path d="M213.392 284.474C252.672 284.474 284.514 252.64 284.514 213.372C284.514 174.104 252.672 142.271 213.392 142.271C174.112 142.271 142.269 174.104 142.269 213.372C142.269 252.64 174.112 284.474 213.392 284.474Z" fill="#F94E4E"/>
<path d="M1173.39 711.138C1193 711.138 1208.9 695.242 1208.9 675.633C1208.9 656.024 1193 640.128 1173.39 640.128C1153.77 640.128 1137.87 656.024 1137.87 675.633C1137.87 695.242 1153.77 711.138 1173.39 711.138Z" fill="#A656FD"/>
<path d="M888.972 640.005C908.587 640.005 924.487 624.109 924.487 604.5C924.487 584.892 908.587 568.996 888.972 568.996C869.357 568.996 853.457 584.892 853.457 604.5C853.457 624.109 869.357 640.005 888.972 640.005Z" fill="#A656FD"/>
<path d="M782.463 711.168C821.743 711.168 853.585 679.335 853.585 640.067C853.585 600.799 821.743 568.965 782.463 568.965C743.183 568.965 711.34 600.799 711.34 640.067C711.34 679.335 743.183 711.168 782.463 711.168Z" fill="#3CE956"/>
<path d="M35.6133 711.015C55.2278 711.015 71.1286 695.119 71.1286 675.51C71.1286 655.901 55.2278 640.005 35.6133 640.005C15.9987 640.005 0.0979614 655.901 0.0979614 675.51C0.0979614 695.119 15.9987 711.015 35.6133 711.015Z" fill="#307DE7"/>
<path d="M782.255 142.234C821.535 142.234 853.377 110.4 853.377 71.132C853.377 31.8638 821.535 0.0305176 782.255 0.0305176C742.975 0.0305176 711.132 31.8638 711.132 71.132C711.132 110.4 742.975 142.234 782.255 142.234Z" fill="#307DE7"/>
<path d="M1066.74 711.199C1106.02 711.199 1137.86 679.365 1137.86 640.097C1137.86 600.829 1106.02 568.996 1066.74 568.996C1027.46 568.996 995.616 600.829 995.616 640.097C995.616 679.365 1027.46 711.199 1066.74 711.199Z" fill="#E6C642"/>
<path d="M71.1958 568.996C110.476 568.996 142.318 537.163 142.318 497.894C142.318 458.626 110.476 426.793 71.1958 426.793C31.916 426.793 0.0734253 458.626 0.0734253 497.894C0.0734253 537.163 31.916 568.996 71.1958 568.996Z" fill="#307DE7"/>
<path d="M1102.3 284.529C1121.91 284.529 1137.81 268.633 1137.81 249.024C1137.81 229.415 1121.91 213.519 1102.3 213.519C1082.68 213.519 1066.78 229.415 1066.78 249.024C1066.78 268.633 1082.68 284.529 1102.3 284.529Z" fill="#A656FD"/>
<path d="M1244.41 284.529C1264.03 284.529 1279.93 268.633 1279.93 249.024C1279.93 229.415 1264.03 213.519 1244.41 213.519C1224.8 213.519 1208.9 229.415 1208.9 249.024C1208.9 268.633 1224.8 284.529 1244.41 284.529Z" fill="#A656FD"/>
<path d="M1173.31 71.3158C1192.92 71.3158 1208.82 55.4198 1208.82 35.811C1208.82 16.2022 1192.92 0.306152 1173.31 0.306152C1153.69 0.306152 1137.79 16.2022 1137.79 35.811C1137.79 55.4198 1153.69 71.3158 1173.31 71.3158Z" fill="#56CFEF"/>
<path d="M782.255 391.104C801.869 391.104 817.77 375.208 817.77 355.6C817.77 335.991 801.869 320.095 782.255 320.095C762.64 320.095 746.739 335.991 746.739 355.6C746.739 375.208 762.64 391.104 782.255 391.104Z" fill="#307DE7"/>
<rect x="-4" y="242" width="1288" height="228" fill="#1C233A" stroke="white" stroke-width="8"/>
<path d="M482.288 429.7C480.488 429.7 479.048 429.16 477.968 428.08C477.008 427.12 476.228 426.28 475.628 425.56L469.148 416.92C463.988 418.84 458.108 419.8 451.508 419.8C440.588 419.8 431.168 418 423.248 414.4C415.328 410.8 409.148 405.4 404.708 398.2C400.388 390.88 397.988 381.7 397.508 370.66C397.388 365.5 397.328 360.4 397.328 355.36C397.328 350.2 397.388 344.98 397.508 339.7C397.988 328.9 400.448 319.84 404.888 312.52C409.448 305.08 415.688 299.5 423.608 295.78C431.648 292.06 440.948 290.2 451.508 290.2C462.068 290.2 471.308 292.06 479.228 295.78C487.268 299.5 493.568 305.08 498.128 312.52C502.688 319.84 505.148 328.9 505.508 339.7C505.748 344.98 505.868 350.2 505.868 355.36C505.868 360.4 505.748 365.5 505.508 370.66C504.788 386.02 500.408 397.72 492.368 405.76L505.328 424.12C505.448 424.24 505.568 424.48 505.688 424.84C505.808 425.2 505.868 425.56 505.868 425.92C505.988 426.88 505.688 427.72 504.968 428.44C504.248 429.28 503.348 429.7 502.268 429.7H482.288ZM451.508 396.58C458.588 396.58 464.348 394.48 468.788 390.28C473.228 385.96 475.628 379.12 475.988 369.76C476.228 364.48 476.348 359.56 476.348 355C476.348 350.32 476.228 345.4 475.988 340.24C475.748 334 474.548 328.9 472.388 324.94C470.348 320.98 467.528 318.1 463.928 316.3C460.328 314.38 456.188 313.42 451.508 313.42C446.948 313.42 442.868 314.38 439.268 316.3C435.668 318.1 432.788 320.98 430.628 324.94C428.468 328.9 427.268 334 427.028 340.24C426.908 345.4 426.848 350.32 426.848 355C426.848 359.56 426.908 364.48 427.028 369.76C427.388 379.12 429.788 385.96 434.228 390.28C438.788 394.48 444.548 396.58 451.508 396.58ZM579.691 419.8C569.131 419.8 559.891 418.06 551.971 414.58C544.051 410.98 537.931 405.52 533.611 398.2C529.291 390.76 527.131 381.34 527.131 369.94V296.5C527.131 295.18 527.551 294.1 528.391 293.26C529.231 292.42 530.311 292 531.631 292H551.251C552.571 292 553.651 292.42 554.491 293.26C555.331 294.1 555.751 295.18 555.751 296.5V369.76C555.751 378.64 557.851 385.24 562.051 389.56C566.251 393.88 572.131 396.04 579.691 396.04C587.131 396.04 592.951 393.88 597.151 389.56C601.351 385.24 603.451 378.64 603.451 369.76V296.5C603.451 295.18 603.871 294.1 604.711 293.26C605.671 292.42 606.751 292 607.951 292H627.751C628.951 292 629.971 292.42 630.811 293.26C631.651 294.1 632.071 295.18 632.071 296.5V369.94C632.071 381.34 629.911 390.76 625.591 398.2C621.271 405.52 615.211 410.98 607.411 414.58C599.611 418.06 590.371 419.8 579.691 419.8ZM662.086 418C660.766 418 659.686 417.58 658.846 416.74C658.006 415.9 657.586 414.82 657.586 413.5V296.5C657.586 295.18 658.006 294.1 658.846 293.26C659.686 292.42 660.766 292 662.086 292H682.426C683.746 292 684.826 292.42 685.666 293.26C686.506 294.1 686.926 295.18 686.926 296.5V413.5C686.926 414.82 686.506 415.9 685.666 416.74C684.826 417.58 683.746 418 682.426 418H662.086ZM711.504 418C710.184 418 709.104 417.58 708.264 416.74C707.424 415.78 707.004 414.7 707.004 413.5V398.38C707.004 396.7 707.364 395.32 708.084 394.24C708.804 393.16 709.344 392.38 709.704 391.9L770.184 315.94H713.124C711.924 315.94 710.904 315.52 710.064 314.68C709.224 313.84 708.804 312.82 708.804 311.62V296.5C708.804 295.18 709.224 294.1 710.064 293.26C710.904 292.42 711.924 292 713.124 292H801.504C802.824 292 803.904 292.42 804.744 293.26C805.704 294.1 806.184 295.18 806.184 296.5V311.44C806.184 312.76 805.944 313.96 805.464 315.04C804.984 316 804.444 316.84 803.844 317.56L744.984 393.88H803.664C804.984 393.88 806.064 394.3 806.904 395.14C807.744 395.98 808.164 397.06 808.164 398.38V413.5C808.164 414.82 807.744 415.9 806.904 416.74C806.064 417.58 804.984 418 803.664 418H711.504ZM832.593 418C831.273 418 830.193 417.58 829.353 416.74C828.513 415.9 828.093 414.82 828.093 413.5V296.5C828.093 295.18 828.513 294.1 829.353 293.26C830.193 292.42 831.273 292 832.593 292H852.933C854.253 292 855.333 292.42 856.173 293.26C857.013 294.1 857.433 295.18 857.433 296.5V413.5C857.433 414.82 857.013 415.9 856.173 416.74C855.333 417.58 854.253 418 852.933 418H832.593Z" fill="white"/>
</g>
<defs>
<clipPath id="clip0_415_66">
<rect width="1280" height="720" fill="white"/>
</clipPath>
</defs>
</svg>
