<svg width="640.405" height="636.98" viewBox="0 0 169.44 168.534" xml:space="preserve" xmlns="http://www.w3.org/2000/svg" style="@media ( prefers-color-scheme: dark ) {path {fill: #fff;}}">
<path d="m43.433 82.197 7.531 53.28L84.72 167.31l33.755-31.833 7.535-53.279-28.957 18.646-12.333 20.51-12.333-20.51zm-31.267 15.11L24.973 70.3l11.24 7.252 3.812 23.638-10.444-2.675 14.832 32.892zm145.109 0L144.468 70.3l-11.24 7.252-3.812 23.638 10.444-2.675-14.832 32.892zM50.282 1.224 21.703 24.35 5.357 47.669 84.72 99.092l79.363-51.422-16.347-23.321-28.577-23.125 10.104 39.12-16.023 6.864L84.72 77.73 56.202 47.208l-16.025-6.862zm34.438 6.63c-7.562 11.5-14.945 23.279-22.439 34.822L84.72 66.262l22.441-23.586C99.667 31.133 92.282 19.354 84.72 7.853Z" fill="#000"/></svg>