<svg xmlns="http://www.w3.org/2000/svg" width="122" height="122" viewBox="0 0 122 122" fill="none">
<path d="M104.607 63.5881C101.255 63.5925 97.9472 64.3591 94.9347 65.8299C93.9915 64.2647 93.2631 62.5797 92.7692 60.8203C92.4854 59.4411 92.4198 58.026 92.5748 56.6265C92.9006 55.0865 93.3234 53.5687 93.8405 52.082C93.8214 51.8876 93.6079 50.9688 91.4615 50.9383C89.3151 50.9078 87.466 51.3462 87.2678 51.9143C86.895 52.9518 86.5956 54.0143 86.3718 55.0939C84.5954 59.4764 82.4087 63.6812 79.841 67.6523C78.4024 65.2939 77.8107 62.5155 78.1635 59.7756C78.4894 58.2357 78.9121 56.7178 79.4293 55.2311C79.4102 55.0367 79.1967 54.1179 77.0503 54.0874C74.9038 54.0569 73.0548 54.4953 72.8565 55.0634C72.6583 55.6314 72.4066 56.9696 71.9606 58.243C71.5145 59.5164 66.3066 71.1521 64.9418 74.1526C64.2403 75.6776 63.6341 76.9204 63.2071 77.7592C63.1868 77.8137 63.1613 77.866 63.1308 77.9155L62.5475 79.0288V79.0478C62.2539 79.5739 61.9413 80.0619 61.785 80.0619C61.5124 78.9727 61.5255 77.8316 61.8231 76.7489C62.5856 72.7114 64.4538 66.4361 64.4347 66.2188C64.4347 66.1006 64.7854 65.0102 63.2261 64.4459C62.8645 64.2738 62.4584 64.2181 62.0637 64.2864C61.6691 64.3547 61.3053 64.5436 61.0225 64.8272C60.8853 64.8272 60.7899 65.1589 60.7899 65.1589C60.7899 65.1589 62.4865 58.1019 57.5531 58.1019C55.632 58.4884 53.8075 59.2551 52.187 60.357C50.5666 61.459 49.1828 62.8738 48.1172 64.5184C46.7904 65.2389 43.9654 66.7792 40.9421 68.4376C39.7983 69.0819 38.6012 69.7263 37.4918 70.3439C37.4155 70.2676 37.3354 70.1685 37.2592 70.0923C31.2545 63.6949 20.2173 59.1809 20.6939 50.6218C20.8693 47.5032 21.9406 39.3139 41.8876 29.3671C58.3042 21.277 71.3696 23.5188 73.6304 28.4903C76.8673 35.5891 66.6307 48.7689 49.6689 50.679C47.7924 51.0597 45.8543 51.0138 43.998 50.5446C42.1417 50.0754 40.4145 49.1949 38.9443 47.9683C38.0484 46.9923 37.9111 46.9351 37.5794 47.1296C37.0343 47.4231 37.385 48.3 37.5794 48.8071C38.2265 49.9781 39.1017 51.0075 40.1534 51.8346C41.205 52.6616 42.4118 53.2695 43.7023 53.6223C50.3751 55.0642 57.3322 54.3748 63.5921 51.6512C73.8859 47.6748 81.8921 36.6185 79.5436 27.3579C77.1837 17.9601 61.5868 14.8606 46.8248 20.1142C37.5785 23.2255 29.035 28.1262 21.6813 34.5369C13.5493 42.1428 12.2644 48.7499 12.7906 51.5216C14.6968 61.3502 28.235 67.7438 33.6526 72.4903C33.4078 72.6295 33.1612 72.7655 32.9129 72.8983C30.2023 74.2441 19.8704 79.6464 17.2817 85.3575C14.3575 91.8388 17.7506 96.4709 19.9924 97.0962C23.3703 97.9048 26.9164 97.6384 30.1356 96.3343C33.3548 95.0302 36.0865 92.7535 37.9493 89.8219C39.5355 87.3904 40.5105 84.6115 40.7913 81.7219C41.0721 78.8323 40.6504 75.9176 39.5619 73.2261C39.5436 73.1826 39.5178 73.1426 39.4857 73.1079L41.6093 71.8613C42.8996 71.0985 44.2063 70.3638 45.5285 69.6576C44.7348 71.9468 44.2689 74.3368 44.1446 76.7565C43.8751 80.4652 45.0101 84.1396 47.3242 87.0503C47.6763 87.3534 48.0851 87.5836 48.5268 87.7276C48.9686 87.8715 49.4345 87.9264 49.8976 87.889C52.1851 87.889 53.2336 85.9828 54.3811 83.7181C55.7841 80.9503 57.0499 77.7325 57.0499 77.7325C57.0499 77.7325 55.4715 86.4288 59.7606 86.4288C61.3199 86.4288 62.8983 84.4006 63.6036 83.3788V83.3979L63.7218 83.2034L63.9734 82.7955V82.7574C64.5986 81.667 66.0016 79.1889 68.0871 75.0752C70.7787 69.772 73.3712 63.1421 73.3712 63.1421C73.6212 64.5991 73.9664 66.0382 74.4044 67.4502C75.0323 69.1618 75.7749 70.8291 76.6271 72.4408C76.0018 73.3176 75.6129 73.8056 75.6129 73.8056L75.632 73.8247C75.1249 74.4881 74.5798 75.2086 73.9736 75.9101C72.17 77.893 70.4967 79.9904 68.9639 82.1893C68.7362 82.5587 68.6579 83.0009 68.7451 83.426C68.8322 83.8511 69.0782 84.2269 69.4329 84.4768C70.2355 84.8944 71.1503 85.0453 72.0444 84.9076C73.392 84.8316 74.717 84.5287 75.9637 84.0117C77.1685 83.5877 78.3051 82.9905 79.3378 82.2389C80.4023 81.5014 81.2592 80.5023 81.8261 79.3379C82.393 78.1734 82.6507 76.8827 82.5746 75.5899C82.4547 73.9613 82.0387 72.3683 81.3469 70.8891C81.5414 70.6146 81.7282 70.3439 81.9112 70.0694C84.0787 66.834 86.0324 63.4604 87.7596 59.9701C88.0096 61.4271 88.3548 62.8662 88.7928 64.2782C89.3107 65.7573 89.9482 67.1917 90.699 68.5673C88.2054 70.4857 86.2413 73.0075 84.9917 75.8949C83.7641 79.4443 84.7172 81.0418 86.5167 81.4116C87.5014 81.4794 88.4859 81.2778 89.3646 80.8283C90.6566 80.4036 91.8737 79.7784 92.9713 78.9754C94.1286 78.2924 95.0979 77.3324 95.792 76.1817C96.4861 75.031 96.8833 73.7258 96.9477 72.3836C96.8611 71.0437 96.5586 69.7267 96.0518 68.4834C99.3423 67.1978 102.91 66.788 106.407 67.2939C115.686 68.3843 117.52 74.1754 117.169 76.6154C117.005 77.4804 116.657 78.3002 116.149 79.0196C115.642 79.739 114.986 80.3414 114.226 80.7863C113.582 81.1943 113.368 81.3315 113.425 81.6251C113.502 82.0559 113.807 82.033 114.359 81.9568C115.758 81.5221 116.992 80.6736 117.899 79.5234C118.805 78.3731 119.342 76.9751 119.438 75.5136C119.731 69.7949 114.272 63.5233 104.618 63.5805L104.607 63.5881ZM33.0083 87.7136C29.9278 91.0686 25.6387 92.3344 23.7858 91.2631C21.7957 90.1193 22.5773 85.1631 26.3593 81.6098C28.6027 79.5903 31.0276 77.7819 33.603 76.2075C34.0529 75.933 34.7163 75.5441 35.5093 75.0638L35.7228 74.9456L36.1917 74.652C36.8674 76.9159 36.9286 79.3187 36.3692 81.614C35.8098 83.9094 34.6498 86.0145 33.0083 87.7136V87.7136ZM55.4296 72.4636C54.3583 75.0752 52.1165 81.7661 50.7516 81.3925C49.5812 81.0799 48.8454 76.0093 50.5191 70.9996C51.3641 68.588 52.595 66.3296 54.1638 64.3125C55.8413 62.4406 57.6942 61.8153 58.1403 62.5778C57.7333 65.9895 56.8197 69.3215 55.4296 72.4636V72.4636ZM73.9316 81.3163C73.4818 81.5488 73.0548 81.6975 72.8603 81.5908C72.7231 81.5145 73.0548 81.2095 73.0548 81.2095C73.0548 81.2095 75.3766 78.7123 76.2916 77.5838C76.8177 76.9204 77.4353 76.1427 78.1063 75.262V75.5136C78.1063 78.495 75.2203 80.5042 73.9354 81.3239L73.9316 81.3163ZM88.2056 78.0604C87.8739 77.8278 87.9311 77.0463 89.0444 74.6101C89.8184 73.0455 90.8998 71.6529 92.224 70.5154C92.427 71.0925 92.5326 71.6994 92.5366 72.3111C92.5517 73.6133 92.1353 74.8837 91.3526 75.9244C90.5698 76.9651 89.4646 77.7175 88.2094 78.0642L88.2056 78.0604Z" fill="#000000"/>
</svg>