<svg width="30" height="30" fill="none" xmlns="http://www.w3.org/2000/svg"><path d="M3.219 2C2.544 2 2 2.544 2 3.219V26.78C2 27.456 2.544 28 3.219 28H26.78c.675 0 1.219-.544 1.219-1.219V3.22C28 2.544 27.456 2 26.781 2H3.22Zm18.81 10.563c.663 0 1.25.04 1.762.12.484.072.958.196 1.415.368v2.663a4.282 4.282 0 0 0-.697-.391 5.524 5.524 0 0 0-.776-.282 5.907 5.907 0 0 0-1.545-.216c-.325 0-.62.03-.887.093-.238.05-.466.139-.675.262a1.299 1.299 0 0 0-.426.405.962.962 0 0 0-.152.53c0 .213.058.405.17.574.112.169.272.33.48.48.206.153.457.3.753.445.296.146.63.297 1.003.45.51.214.967.442 1.372.681.405.24.753.512 1.043.816.29.302.512.648.665 1.037.154.389.232.84.232 1.357 0 .712-.135 1.31-.404 1.794-.262.477-.64.88-1.096 1.175a4.748 4.748 0 0 1-1.611.646c-.613.13-1.26.195-1.94.195a10.747 10.747 0 0 1-1.993-.178 6.004 6.004 0 0 1-1.638-.534v-2.849a5.453 5.453 0 0 0 3.507 1.3c.36 0 .676-.032.945-.097.27-.065.494-.156.675-.271a1.21 1.21 0 0 0 .404-.412 1.11 1.11 0 0 0-.08-1.18 2.295 2.295 0 0 0-.582-.541 6.059 6.059 0 0 0-.874-.481c-.36-.165-.725-.322-1.091-.473-.995-.415-1.736-.923-2.224-1.522-.488-.599-.733-1.324-.733-2.172 0-.665.134-1.236.4-1.714a3.396 3.396 0 0 1 1.088-1.18 4.868 4.868 0 0 1 1.592-.68 8.16 8.16 0 0 1 1.918-.219Zm-16.373.203h10.36v2.347h-3.718v10.45H9.355v-10.45H5.656v-2.347Z" fill="#000"/></svg>