<svg width="640.405" height="636.98" viewBox="0 0 169.44 168.534" xml:space="preserve" xmlns="http://www.w3.org/2000/svg"><path style="display:inline;fill:#fff;stroke-width:.204611" d="M138.176 235.766c-13.847-2.169-26.972-7.593-38.093-15.566-30.131-21.602-43.51-57.628-36.765-92.06.681-3.48 2.845-10.277 3.14-10.572.07-.07 8.082 5.108 8.548 5.523.087.078-.29 1.137-.517 1.873-.734 2.377-1.846 8.555-2.257 12.545-3.556 34.518 15.301 67.516 46.9 82.07 3.278 1.51 9.554 4.435 12.163 5.085 5.658 5.084 5.76 5.314 12.27 11.892-.21-.012-3.627-.514-5.39-.79zm29.153 0c13.847-2.169 26.972-7.593 38.092-15.566 30.132-21.602 43.51-57.628 36.766-92.06-.681-3.48-2.845-10.277-3.14-10.572-.07-.07-8.082 5.108-8.548 5.523-.087.078.29 1.137.517 1.873.734 2.377 1.846 8.555 2.257 12.545 3.555 34.518-15.301 67.516-46.9 82.07-3.279 1.51-9.554 4.435-12.164 5.085-5.657 5.084-5.76 5.314-12.27 11.892.21-.012 3.628-.514 5.39-.79zm-57.26-90.05 7.786 55.212 34.897 32.988 34.896-32.988 7.79-55.211-29.936 19.322-12.75 21.254-12.75-21.254zm-32.323 15.658 13.24-27.987 11.62 7.515 3.94 24.496-10.797-2.772 15.334 34.084zm150.013 0-13.24-27.987-11.62 7.515-3.94 24.496 10.797-2.772-15.334 34.084zM117.15 61.807 87.605 85.77l-16.898 24.166 82.045 53.288 82.045-53.287-16.899-24.167-29.543-23.964 10.446 40.54-16.565 7.112-29.484 31.63-29.482-31.63-16.567-7.111zm35.602 6.869c-7.818 11.918-15.45 24.124-23.197 36.086l23.197 24.441 23.2-24.441c-7.748-11.962-15.382-24.168-23.2-36.086Zm-.014-13.87c-6.432.107-12.187.28-21.125 2.454-3.873.9-6.596 1.858-6.785 1.924-.766 3.102-1.615 7.238-2.357 10.056 10.17-3.246 14.328-3.755 29.107-4.799.403.01.794.004 1.174-.013.38.017.773.022 1.176.013 14.778 1.044 18.938 1.553 29.107 4.8-.742-2.819-1.593-6.955-2.36-10.057-.188-.066-2.909-1.024-6.782-1.924-8.938-2.173-14.695-2.347-21.127-2.453l-.014.002-.014-.002z" class="UnoptimicedTransforms" transform="matrix(.9295 0 0 .92729 -57.263 -50.821)"/></svg>