<svg xmlns="http://www.w3.org/2000/svg" class="icon icon-tabler icon-tabler-star-filled" width="40" height="40" viewBox="0 0 24 24" stroke-width="2" stroke="currentColor" fill="none" stroke-linecap="round" stroke-linejoin="round"><path d="M0 0h24v24H0z" stroke="none"/><path d="m8.243 7.34-6.38.925-.113.023a1 1 0 0 0-.44 1.684l4.622 4.499-1.09 6.355-.013.11a1 1 0 0 0 1.464.944l5.706-3 5.693 3 .1.046a1 1 0 0 0 1.352-1.1l-1.091-6.355 4.624-4.5.078-.085a1 1 0 0 0-.633-1.62l-6.38-.926-2.852-5.78a1 1 0 0 0-1.794 0L8.243 7.34z" fill="currentColor" stroke="none"/></svg>